<svg width="390" height="320" viewBox="0 0 390 320" fill="none" xmlns="http://www.w3.org/2000/svg">
  <rect width="390" height="320" rx="24" fill="#EEF4FB"/>
  <rect x="18" y="20" width="112" height="84" rx="18" fill="#DDE8F7"/>
  <rect x="146" y="28" width="86" height="68" rx="18" fill="#E7EEF9"/>
  <rect x="247" y="20" width="124" height="88" rx="18" fill="#DDE9F8"/>
  <rect x="34" y="124" width="78" height="58" rx="16" fill="#E4EDF9"/>
  <rect x="128" y="116" width="142" height="76" rx="20" fill="#D8E6F6"/>
  <rect x="286" y="122" width="70" height="60" rx="16" fill="#E6EEF8"/>
  <rect x="20" y="212" width="96" height="80" rx="18" fill="#DCE9F8"/>
  <rect x="132" y="210" width="102" height="84" rx="20" fill="#E9F0FA"/>
  <rect x="252" y="208" width="118" height="86" rx="18" fill="#DDE7F5"/>

  <path d="M-8 88C54 88 80 76 126 64C173 51 217 57 264 80C304 99 335 126 401 133" stroke="#FCFEFF" stroke-width="22" stroke-linecap="round"/>
  <path d="M-8 88C54 88 80 76 126 64C173 51 217 57 264 80C304 99 335 126 401 133" stroke="#C5D4E8" stroke-width="3" stroke-linecap="round" stroke-dasharray="8 10"/>

  <path d="M66 340C70 276 90 235 133 205C183 170 235 160 305 176C340 184 366 194 407 210" stroke="#FCFEFF" stroke-width="24" stroke-linecap="round"/>
  <path d="M66 340C70 276 90 235 133 205C183 170 235 160 305 176C340 184 366 194 407 210" stroke="#C5D4E8" stroke-width="3" stroke-linecap="round" stroke-dasharray="8 10"/>

  <path d="M197 -10C195 54 195 83 196 123C197 165 212 194 235 220C255 243 278 258 302 330" stroke="#FCFEFF" stroke-width="20" stroke-linecap="round"/>
  <path d="M197 -10C195 54 195 83 196 123C197 165 212 194 235 220C255 243 278 258 302 330" stroke="#C5D4E8" stroke-width="3" stroke-linecap="round" stroke-dasharray="8 10"/>

  <path d="M42 40C57 47 66 62 74 76" stroke="#93B2D8" stroke-width="6" stroke-linecap="round" opacity=".55"/>
  <path d="M303 49C316 54 328 67 336 81" stroke="#93B2D8" stroke-width="6" stroke-linecap="round" opacity=".55"/>
  <path d="M322 230C336 237 344 250 351 264" stroke="#93B2D8" stroke-width="6" stroke-linecap="round" opacity=".55"/>

  <circle cx="74" cy="75" r="20" fill="#CFF4EA"/>
  <circle cx="74" cy="75" r="7" fill="#39B899"/>
  <text x="98" y="80" fill="#2E4C73" font-family="Arial, sans-serif" font-size="12" font-weight="700">슈퍼차저</text>

  <text x="42" y="150" fill="#6B84A5" font-family="Arial, sans-serif" font-size="11" font-weight="700">판교 테크노밸리</text>
  <text x="264" y="153" fill="#6B84A5" font-family="Arial, sans-serif" font-size="11" font-weight="700">판교역 북측</text>
  <text x="264" y="264" fill="#6B84A5" font-family="Arial, sans-serif" font-size="11" font-weight="700">EV 허브</text>

  <rect x="0" y="0" width="390" height="320" rx="24" fill="url(#paint0_linear)" fill-opacity=".35"/>
  <defs>
    <linearGradient id="paint0_linear" x1="39" y1="10" x2="349" y2="310" gradientUnits="userSpaceOnUse">
      <stop stop-color="white" stop-opacity=".85"/>
      <stop offset=".45" stop-color="white" stop-opacity="0"/>
      <stop offset="1" stop-color="#BFD8F6" stop-opacity=".34"/>
    </linearGradient>
  </defs>
</svg>
